<svg xmlns="http://www.w3.org/2000/svg" width="23" height="25"><path fill-rule="evenodd" fill="#FFF" d="M20.633 7.959c-.848 0-.713.693-.713 1.54v6.165c0 .847-.135 1.541.713 1.541s1.541-.694 1.541-1.541V9.499c0-.847-.693-1.54-1.541-1.54Zm-18.492 0C1.293 7.959.6 8.652.6 9.499v6.165c0 .847.693 1.541 1.541 1.541s1.541-.694 1.541-1.541V9.499c0-.847-.693-1.54-1.541-1.54Zm2.312 10.016a2.312 2.312 0 0 0 2.311 2.312h.771v3.082c0 .847.693 1.541 2.225 1.541.164 0 .857-.694.857-1.541v-3.082h1.541v3.082c0 .847.693 1.541 1.541 1.541s1.541-.694 1.541-1.541v-3.082h.86c1.187 0 2.222-1.036 2.222-2.312V9.499H4.453v8.476Zm9.79-15.566.975-1.874a.193.193 0 0 0-.081-.26c.283-.048-.212-.011-.261.083l-.99 1.901a6.909 6.909 0 0 0-2.499-.464c-.881 0-1.724.164-2.499.464L7.898.358a.195.195 0 0 0-.26-.083.193.193 0 0 0-.082.26l.976 1.874a6.94 6.94 0 0 0-4.037 5.55h13.784c.221-2.479-1.854-4.563-4.036-5.55ZM8.305 6.765a1.118 1.118 0 0 1-1.117-1.118c0-.347.5-1.117 1.117-1.117s1.117.77 1.117 1.117c0 .617-.5 1.118-1.117 1.118Zm6.164 0a1.118 1.118 0 0 1-1.117-1.118c0-.347.5-1.117 1.117-1.117 1.391 0 1.118.77 1.118 1.117 0 .617.273 1.118-1.118 1.118Z"/></svg>
