<svg xmlns="http://www.w3.org/2000/svg" width="21" height="26"><path fill-rule="evenodd" fill="#4BCAFF" d="M16.771 13.813c-.031-3.122 2.546-4.62 2.662-4.694-1.449-2.12-3.705-2.41-4.509-2.443-1.524-.195-3.747 1.13-4.721 1.13-.972 0-2.476-1.103-4.068-1.072-1.715.03-4.023 1.216-4.795 3.091-2.479 3.773-.862 9.362 1.257 12.422 1.036 1.498 2.271 3.181 3.892 3.12 2.011-.061 2.151-1.009 4.039-1.009s2.419 1.009 4.07.978c1.681-.03 2.745-1.526 3.774-3.029 1.189-1.737 2.128-3.42 2.428-3.506-.38-.017-3.997-1.258-4.029-4.988Zm-3.105-9.164c.861-1.043 1.442-2.492 1.283-3.936-1.239.049-2.743.824-3.631 1.866-.799.925-1.497 2.4-.518 3.816.592.108 2.004-.705 2.866-1.746Z"/></svg>
