<svg xmlns="http://www.w3.org/2000/svg" width="70" height="70"><path fill-rule="evenodd" fill="#F9F9F9" d="M61.241 56.867v13.121L48.12 56.867H26.252c-4.374 0-8.747-4.374-8.747-8.747v-2.563l6.185-6.184h20.057c6.748 0 13.121-6.377 13.121-13.121v-4.374h4.373c4.374 0 8.747 4.374 8.747 8.747V48.12c0 4.373-4.373 8.747-8.747 8.747ZM43.747 34.999H21.878L8.758 48.12V34.999C4.384 34.999.1 30.625.1 26.252V8.757C.1 4.384 4.384.1 8.758.1h34.989c4.373 0 8.747 4.284 8.747 8.657v17.495c0 4.373-4.374 8.747-8.747 8.747Z"/></svg>
