<svg xmlns="http://www.w3.org/2000/svg" width="47" height="69"><path fill-rule="evenodd" fill="#FFF" d="M40.598 68.988H6.401C2.869 68.988.1 66.87.1 62.522V6.477C.1 2.911 2.869.1 6.401.1h34.197c3.54 0 6.502 2.811 6.502 6.377v56.045c0 4.348-2.962 6.466-6.502 6.466Zm2.137-62.511c0-1.187-.96-2.156-2.137-2.156H6.401a2.152 2.152 0 0 0-2.138 2.156v56.045c0 1.187.961 2.155 2.138 2.155h34.197a2.15 2.15 0 0 0 2.137-2.155V6.477ZM8.538 8.632h29.923V56.55H8.538V8.632Zm14.961 49.579a2.15 2.15 0 0 1 2.138 2.155c0 1.187-.96 2.156-2.138 2.156a2.151 2.151 0 0 1-2.137-2.156 2.15 2.15 0 0 1 2.137-2.155Z"/></svg>
