<svg height="40" width="40" xmlns="http://www.w3.org/2000/svg" viewBox="0 0 40 40" xml:space="preserve"><path fill="#4bcaff" d="M28 18.2c-.1 0-.3 0-.4-.1-2-2-4.8-3.2-7.6-3.2S14.4 16 12.4 18c-.2.2-.5.2-.7 0s-.2-.5 0-.7c2.2-2.2 5.2-3.5 8.4-3.5s6.1 1.2 8.4 3.5c.2.2.2.5 0 .7-.2.1-.4.2-.5.2z"/><path fill="#4bcaff" d="M25.3 20.8c-.1 0-.3 0-.4-.1-2.7-2.7-7.2-2.7-10 0-.2.2-.5.2-.7 0s-.2-.5 0-.7c3.1-3.1 8.2-3.1 11.4 0 .2.2.2.5 0 .7 0 .1-.1.1-.3.1zm-2.6 2.7c-.1 0-.3 0-.4-.1-1.3-1.3-3.4-1.3-4.6 0-.2.2-.5.2-.7 0s-.2-.5 0-.7c1.7-1.7 4.4-1.7 6 0 .2.2.2.5 0 .7-.1 0-.2.1-.3.1z"/></svg>
